<?xml version="1.0" standalone="no"?>
<!DOCTYPE svg>
<svg version="1.0" xmlns="http://www.w3.org/2000/svg"
 width="1024.000000pt" height="1024.000000pt" viewBox="0 0 1024.000000 1024.000000"
 preserveAspectRatio="xMidYMid meet">

<g transform="translate(0.000000,1024.000000) scale(0.100000,-0.100000)"
fill="#000000" stroke="none">
<path d="M0 5120 l0 -5120 5120 0 5120 0 0 5120 0 5120 -5120 0 -5120 0 0
-5120z m4836 4068 c-10 -6 -22 -6 -26 -2 -5 5 3 10 18 11 22 1 24 0 8 -9z m70
3 c-3 -5 0 -21 8 -35 l13 -26 15 29 14 30 1 -49 c1 -64 -18 -66 -47 -5 -19 39
-20 65 -4 65 3 0 3 -4 0 -9z m334 -2 c0 8 2 12 5 9 3 -3 3 -13 -1 -22 -7 -19
-24 -11 -24 12 0 15 2 15 10 2 8 -12 10 -12 10 -1z m30 -15 c-21 -55 -30 -66
-46 -53 -8 6 -14 19 -13 28 0 12 2 11 8 -4 8 -18 10 -16 31 18 26 43 34 48 20
11z m105 5 c-3 -4 -12 -6 -20 -3 -8 4 -13 10 -10 15 3 4 12 6 20 3 8 -4 13
-10 10 -15z m-325 1 c-8 -5 -10 -10 -4 -10 5 0 15 5 21 11 22 22 67 6 89 -34
11 -20 23 -36 25 -35 2 2 1 -1 -4 -7 -5 -6 -11 -5 -17 5 -6 10 -12 1 -21 -33
-13 -53 -41 -69 -86 -48 -19 9 -24 17 -21 36 5 25 -7 35 -43 35 -10 0 -19 6
-19 14 0 16 65 76 83 76 7 0 6 -4 -3 -10z m-305 -18 c-3 -3 -11 0 -18 7 -9 10
-8 11 6 5 10 -3 15 -9 12 -12z m677 1 c-10 -4 -9 -9 5 -20 17 -13 16 -13 -5
-3 -22 11 -22 31 1 29 8 0 8 -2 -1 -6z m200 0 c-6 -2 -9 -9 -6 -14 3 -6 12 -5
22 3 15 12 16 11 3 -5 -10 -13 -17 -15 -27 -6 -15 12 -10 29 9 28 9 0 8 -2 -1
-6z m-394 -61 c2 -7 -6 -12 -20 -11 -12 0 -17 3 -10 6 6 2 9 9 6 15 -4 6 -1 9
6 6 8 -2 16 -10 18 -16z m272 8 c-9 -5 -3 -13 19 -26 17 -10 31 -22 31 -27 0
-5 9 -6 19 -2 11 3 22 1 26 -4 4 -7 -1 -8 -12 -4 -14 5 -13 1 6 -20 30 -33 41
-34 35 -4 l-5 22 12 -23 c9 -17 9 -26 1 -34 -8 -8 -22 0 -54 32 -24 24 -60 54
-80 68 -21 13 -38 25 -38 26 0 0 12 2 27 3 16 0 21 -2 13 -7z m79 -9 c10 -7 7
-9 -12 -8 -14 1 -23 5 -20 10 6 9 15 9 32 -2z m-919 -21 c-14 -11 -29 -20 -35
-20 -5 0 4 9 20 20 38 25 48 25 15 0z m1044 -32 c-3 -5 -10 -6 -15 -3 -5 4 -9
-5 -9 -19 0 -14 -4 -26 -9 -26 -5 0 -7 10 -3 22 4 16 2 19 -9 14 -8 -4 -6 -1
3 7 19 15 50 19 42 5z m-1084 -2 c0 -2 -8 -10 -17 -17 -16 -13 -17 -12 -4 4
13 16 21 21 21 13z m-43 -21 c0 -8 -4 -12 -9 -9 -5 3 -6 10 -3 15 9 13 12 11
12 -6z m1113 -66 c0 -6 -4 -7 -10 -4 -5 3 -10 11 -10 16 0 6 5 7 10 4 6 -3 10
-11 10 -16z m-1748 -29 c55 -30 84 -40 120 -40 26 0 49 -4 52 -9 3 -5 -22 -18
-55 -30 -63 -24 -64 -25 -92 -116 l-15 -50 -1 72 c-1 67 -4 75 -46 139 -25 36
-45 68 -45 70 0 8 10 3 82 -36z m1074 3 l6 -38 53 -1 54 -2 3 37 c3 34 5 36
36 34 40 -1 92 -22 92 -35 0 -6 -10 -24 -22 -41 -21 -29 -21 -31 -4 -41 10 -6
31 -21 46 -33 l27 -22 22 29 c12 17 26 30 32 30 5 0 22 -20 37 -45 15 -24 32
-45 39 -45 16 0 21 -10 29 -57 l6 -40 -46 -7 -46 -7 0 -55 0 -54 46 0 45 0 -3
-52 c-3 -46 -6 -53 -25 -56 -13 -2 -23 -10 -23 -19 0 -22 -48 -83 -65 -83 -8
0 -20 9 -27 20 -17 26 -21 26 -62 -11 -35 -30 -35 -32 -21 -59 21 -41 20 -46
-25 -64 -65 -26 -80 -22 -80 19 l0 35 -54 0 c-57 0 -66 -7 -66 -56 0 -22 -3
-24 -27 -18 -40 9 -93 32 -93 39 0 11 23 50 33 57 13 8 -4 30 -45 60 l-29 20
-29 -27 -28 -26 -20 28 c-11 16 -24 41 -27 56 -5 17 -14 27 -25 27 -22 0 -30
19 -30 71 0 39 0 39 40 39 l40 0 0 55 c0 52 -2 55 -24 55 -43 0 -56 10 -56 45
0 34 21 65 44 65 8 0 16 14 20 30 8 40 34 50 57 21 l18 -22 45 34 44 33 -20
33 c-24 37 -19 46 38 66 57 21 63 19 70 -22z m613 23 c-2 -2 -18 -7 -34 -11
l-30 -6 30 14 c27 13 45 14 34 3z m165 -60 c-7 -17 -24 -22 -24 -6 0 5 -8 6
-17 3 -15 -6 -16 -5 -3 9 8 9 17 12 18 7 2 -5 8 -9 14 -9 6 0 7 7 4 15 -15 38
-16 48 -2 23 9 -15 13 -34 10 -42z m-1209 44 c-3 -5 -11 -10 -16 -10 -6 0 -7
5 -4 10 3 6 11 10 16 10 6 0 7 -4 4 -10z m41 -15 c4 -8 11 -15 16 -15 18 0 37
-33 38 -63 0 -37 -49 -87 -85 -87 -14 0 -43 14 -64 31 -21 16 -48 31 -59 32
-27 2 -19 10 13 13 14 1 25 -2 25 -7 0 -5 8 -9 17 -9 15 0 14 2 -3 19 -14 13
-30 17 -54 13 -32 -5 -33 -4 -18 12 20 19 32 21 22 4 -6 -10 -4 -10 8 0 8 7
22 11 29 9 8 -2 11 -2 7 0 -17 10 -7 23 17 23 14 0 25 4 25 8 0 9 37 30 53 31
4 1 10 -6 13 -14z m926 2 c-8 -10 1 -18 39 -36 36 -18 47 -27 39 -35 -8 -8
-17 -5 -30 12 -14 17 -26 22 -42 17 -18 -5 -20 -4 -8 4 8 6 12 11 8 11 -3 0
-14 3 -24 7 -12 4 -15 3 -10 -5 4 -7 2 -12 -4 -12 -6 0 -8 -5 -4 -12 4 -6 3
-8 -3 -5 -10 6 -16 -40 -7 -55 2 -3 26 0 53 7 28 7 52 10 55 7 3 -3 15 3 26
13 15 14 17 20 8 26 -7 4 -9 11 -5 15 4 4 15 0 25 -9 21 -20 32 -22 32 -6 0 5
-4 7 -10 4 -5 -3 -10 1 -10 9 0 10 6 13 15 10 8 -4 15 -11 15 -16 0 -6 7 -8
15 -4 9 3 15 0 15 -9 0 -8 6 -15 14 -15 28 0 27 -20 0 -30 -20 -8 -30 -8 -38
1 -8 9 -7 11 5 6 9 -3 22 -1 30 4 11 7 9 9 -8 9 -27 0 -65 -16 -116 -49 -35
-22 -40 -23 -78 -11 -65 22 -81 85 -33 134 27 26 56 37 36 13z m64 -7 c8 0 14
-7 14 -15 0 -8 -7 -15 -15 -15 -8 0 -15 5 -15 10 0 6 -7 10 -15 10 -8 0 -15 5
-15 11 0 6 7 8 16 5 9 -3 22 -6 30 -6z m104 0 c0 -5 -4 -10 -10 -10 -5 0 -10
5 -10 10 0 6 5 10 10 10 6 0 10 -4 10 -10z m499 -5 c28 -14 61 -68 61 -100 0
-21 -17 -54 -42 -82 -16 -17 -22 -41 -26 -115 -4 -66 -8 -84 -13 -63 -6 25 -7
22 -8 -21 0 -27 -6 -55 -13 -62 -9 -9 -9 -12 3 -13 7 0 1 -5 -15 -9 -16 -5
-33 -7 -38 -4 -4 3 -8 64 -8 136 l0 130 -30 35 c-44 49 -42 103 4 149 38 38
77 44 125 19z m-349 -75 c0 -5 -5 -10 -11 -10 -5 0 -7 5 -4 10 3 6 8 10 11 10
2 0 4 -4 4 -10z m-2288 -29 c161 -62 274 -267 239 -433 -38 -180 -182 -306
-362 -316 -95 -5 -153 8 -231 55 -226 134 -263 430 -76 612 49 47 123 87 188
101 69 14 178 5 242 -19z m843 -11 c-3 -5 -12 -10 -18 -10 -7 0 -6 4 3 10 19
12 23 12 15 0z m1347 -35 c15 -38 15 -45 3 -45 -21 0 -19 -3 15 -40 33 -36 39
-34 57 13 7 19 12 25 12 14 1 -10 6 -15 11 -12 6 4 10 -7 9 -27 -1 -31 -2 -31
-9 -8 -6 22 -8 23 -15 6 -5 -10 -4 -21 2 -25 6 -3 13 -13 16 -21 4 -12 6 -11
6 3 1 9 6 17 11 17 6 0 8 17 5 43 -4 30 -3 35 3 17 15 -43 23 -140 12 -140 -5
0 -10 5 -10 10 0 6 -4 10 -10 10 -17 0 -11 -18 8 -24 17 -6 18 -13 10 -69 -4
-34 -11 -69 -15 -77 -3 -8 -5 -21 -4 -27 4 -24 -20 -94 -29 -88 -6 3 -7 0 -4
-8 3 -8 -6 -37 -20 -65 -79 -156 -180 -256 -383 -378 -17 -11 -17 -14 7 -82
l24 -71 46 -7 c71 -9 237 -54 304 -82 47 -19 80 -25 146 -26 82 -2 89 -4 180
-53 411 -220 452 -246 650 -409 222 -183 255 -203 410 -258 111 -39 115 -42
172 -130 29 -45 78 -115 109 -156 60 -80 112 -174 102 -184 -4 -3 -1 -6 6 -6
8 0 10 -7 6 -20 -3 -11 -2 -20 3 -20 6 0 8 -10 5 -22 -4 -19 -3 -20 7 -8 9 12
11 10 7 -12 -2 -17 0 -25 6 -21 6 4 8 -2 5 -15 -4 -12 -3 -20 2 -17 7 5 13
-17 27 -92 3 -18 10 -33 15 -33 6 0 8 -9 5 -20 -3 -11 -1 -20 4 -20 5 0 7 -12
3 -27 -4 -23 -3 -25 6 -13 9 12 11 9 6 -17 -5 -30 14 -116 35 -155 5 -10 9
-28 9 -40 0 -13 3 -34 7 -46 4 -18 8 -20 15 -10 5 8 6 4 2 -14 -3 -16 0 -35 9
-50 17 -26 33 -161 46 -376 9 -141 7 -182 -10 -182 -16 0 -244 93 -250 103 -3
5 -9 45 -12 90 -3 45 -9 96 -13 113 -6 30 -2 34 75 94 45 34 81 64 81 65 0 14
-73 252 -79 258 -4 4 -72 -5 -151 -22 l-142 -29 -30 66 c-16 36 -47 103 -68
148 l-38 82 32 49 c18 26 54 85 80 130 l48 83 -47 77 c-26 43 -66 107 -89 141
l-41 64 -121 -7 -122 -6 -71 63 c-70 62 -71 63 -71 113 0 27 -3 74 -7 103 l-6
53 -176 138 c-97 76 -191 148 -208 161 l-33 24 -37 -30 c-21 -17 -59 -45 -85
-62 l-47 -33 -58 29 c-32 16 -88 41 -124 56 l-66 28 -7 51 c-3 29 -6 79 -6
112 l0 60 -86 24 c-72 20 -88 22 -95 10 -5 -8 -27 -47 -49 -86 -22 -40 -44
-73 -49 -73 -4 0 -50 9 -102 20 -52 11 -104 20 -117 20 -16 0 -32 15 -59 58
-19 31 -55 86 -78 122 l-43 65 -173 -5 -173 -5 -68 -110 c-44 -71 -76 -113
-90 -117 -29 -9 -231 -49 -233 -45 -4 8 -98 172 -100 174 -1 2 -43 -11 -93
-28 l-92 -31 0 -106 -1 -107 -119 -54 -119 -53 -33 23 c-18 12 -59 43 -91 67
l-57 45 -34 -24 c-50 -35 -400 -321 -408 -334 -4 -5 -8 -52 -8 -103 l0 -94
-57 -58 -58 -57 -118 6 c-140 7 -121 20 -231 -156 l-76 -123 78 -131 79 -132
-64 -139 c-34 -76 -63 -143 -63 -149 0 -6 -9 -8 -19 -4 -20 6 -270 55 -282 55
-3 0 -20 -48 -37 -107 -49 -173 -51 -154 22 -207 97 -71 97 -72 86 -142 -6
-32 -10 -80 -10 -106 0 -54 -7 -78 -24 -78 -6 0 -51 -17 -101 -39 -49 -21
-101 -42 -114 -46 l-24 -7 9 103 c5 57 8 123 8 147 -1 28 3 42 11 42 9 0 12
26 11 103 -1 90 2 106 21 137 25 38 35 58 54 107 9 21 16 28 21 20 11 -18 10
6 -2 37 -7 19 -6 25 2 23 7 -1 14 6 16 17 2 11 0 16 -6 12 -6 -3 -14 -2 -17 4
-4 6 -3 10 2 9 24 -4 39 3 39 19 1 27 14 96 24 132 5 19 8 36 5 38 -2 2 -129
4 -282 3 -153 -1 -493 1 -756 5 l-477 7 0 44 0 43 750 0 c413 0 750 4 750 8 0
4 9 8 20 9 29 2 57 32 40 43 -7 4 -9 13 -6 19 4 6 1 11 -8 11 -8 0 -17 -5 -19
-10 -7 -13 -3 -2 23 82 12 38 26 66 31 62 5 -3 6 1 3 9 -5 15 30 89 77 159 19
29 41 44 106 72 142 60 268 151 385 278 165 181 198 211 293 268 50 29 149 93
220 141 235 158 378 223 468 213 45 -5 67 0 162 36 134 50 237 78 322 86 62 7
66 9 79 40 7 17 16 49 20 71 6 38 5 38 -43 62 -101 49 -247 169 -237 196 3 7
1 16 -5 20 -7 4 -8 0 -4 -11 12 -32 -16 -4 -50 49 -18 29 -34 66 -35 82 -1 21
1 26 7 16 5 -8 7 5 3 35 -3 27 -11 55 -19 62 -7 7 -13 9 -13 3 0 -5 5 -13 10
-16 14 -9 13 -62 -1 -67 -9 -3 -9 -10 0 -26 6 -12 9 -22 6 -22 -8 0 -56 103
-50 108 3 3 11 -10 19 -29 l15 -34 1 33 c0 17 -4 32 -10 32 -5 0 -10 7 -10 15
0 18 -20 20 -20 3 -1 -7 -7 2 -15 20 -14 33 -10 96 6 87 4 -3 7 -11 5 -18 -1
-7 -1 -9 1 -6 2 4 21 5 42 2 37 -5 38 -4 39 26 0 17 -4 33 -9 36 -14 9 -11 25
5 25 8 0 16 10 18 23 2 12 11 -16 20 -61 18 -91 16 -108 -14 -118 -11 -3 -17
-8 -14 -11 3 -3 17 2 31 11 14 9 25 12 25 6 0 -21 40 -9 80 25 40 34 70 42
104 29 9 -3 16 -13 16 -21 0 -8 4 -12 9 -8 14 8 25 -62 14 -88 -5 -11 -36 -35
-68 -53 -33 -17 -61 -36 -62 -41 -2 -5 4 -18 12 -28 14 -19 15 -18 5 8 -5 15
-7 27 -5 27 7 0 29 -53 26 -63 -1 -5 3 -6 8 -3 11 7 33 -18 24 -28 -4 -4 0 -4
8 -1 10 4 28 -6 47 -24 18 -16 32 -27 32 -25 0 4 133 -66 145 -77 14 -13 35
-11 35 4 0 7 12 36 26 65 25 51 27 52 69 52 39 0 44 3 54 30 8 26 15 30 45 30
25 0 38 -6 46 -20 6 -11 7 -20 3 -20 -4 0 -3 -4 3 -9 5 -6 30 -11 55 -12 39
-2 49 -7 63 -31 10 -15 14 -33 10 -40 -4 -6 -3 -8 3 -5 6 4 16 -6 23 -22 l12
-30 45 20 c25 10 49 16 54 13 5 -3 8 -1 7 4 -2 5 28 30 65 56 62 43 119 96
140 133 11 18 -9 43 -35 43 -11 0 -33 14 -50 30 -24 24 -29 36 -24 56 5 18 3
24 -4 19 -7 -4 -4 7 4 24 9 17 25 35 37 41 29 16 64 9 63 -13 -2 -14 1 -15 12
-6 12 10 20 7 42 -14 16 -15 35 -27 44 -27 16 0 20 7 32 63 4 16 11 25 17 21
7 -4 9 0 6 12 -3 11 -7 89 -9 176 -2 86 -6 154 -10 151 -9 -5 -10 4 -2 35 9
33 18 27 36 -23z m75 23 c-3 -8 -6 -5 -6 6 -1 11 2 17 5 13 3 -3 4 -12 1 -19z
m29 -24 c1 -35 -2 -44 -13 -40 -8 4 -17 -3 -22 -16 -6 -17 -10 -18 -16 -8 -5
9 -4 15 3 18 7 2 12 9 12 16 0 11 28 76 33 76 1 0 3 -21 3 -46z m-1447 -41
c-8 -14 -14 -42 -14 -63 0 -27 -2 -34 -10 -25 -5 7 -16 14 -23 16 -9 3 -7 11
8 27 11 12 20 28 18 35 -1 6 1 25 6 42 7 27 9 28 18 11 7 -13 6 -25 -3 -43z
m2444 -34 c43 -46 31 -140 -22 -169 -29 -15 -83 -12 -109 6 -22 15 -24 15 -29
-5 -3 -11 -9 -18 -14 -15 -5 3 -6 10 -3 16 5 7 2 8 -5 4 -7 -5 -10 -14 -7 -21
4 -12 -36 -31 -56 -27 -5 1 -8 -4 -8 -12 0 -17 -22 -26 -58 -26 -25 1 -20 8
53 75 58 54 80 82 82 101 5 60 28 90 83 107 28 9 65 -5 93 -34z m257 -40 c7
-17 25 -35 39 -41 l26 -11 -32 -9 c-18 -5 -33 -13 -33 -18 0 -16 -37 -11 -44
5 -3 8 -17 15 -31 15 -34 0 -32 16 4 23 22 5 30 13 34 36 8 39 21 39 37 0z
m-2755 -69 c-5 -14 -2 -20 9 -20 9 0 16 -7 16 -15 0 -8 -6 -15 -14 -15 -8 0
-16 7 -20 15 -8 21 -46 19 -46 -2 0 -9 -2 -14 -5 -11 -4 3 -3 18 1 33 5 20 11
25 25 22 11 -3 22 -1 25 4 10 16 15 9 9 -11z m-1633 -27 c45 -43 38 -112 -13
-138 -65 -34 -129 2 -129 73 0 82 84 120 142 65z m1598 -82 c0 -6 -4 -13 -10
-16 -5 -3 -10 1 -10 9 0 9 5 16 10 16 6 0 10 -4 10 -9z m40 -41 c0 -13 -7 -20
-20 -20 -13 0 -20 7 -20 20 0 13 7 20 20 20 13 0 20 -7 20 -20z m2189 -86 l51
-7 0 -286 c0 -317 -7 -365 -57 -413 -58 -54 -88 -62 -223 -62 -75 0 -140 5
-162 12 -40 14 -102 76 -120 120 -12 28 -25 599 -15 626 5 11 47 14 241 15
129 1 257 -1 285 -5z m-3931 -49 c32 -38 30 -89 -7 -126 -37 -37 -79 -38 -120
-3 -26 21 -31 33 -31 69 0 36 5 48 32 70 26 22 39 26 67 21 21 -3 45 -16 59
-31z m4840 -21 c14 -4 22 -14 22 -28 0 -49 11 -64 48 -69 21 -3 46 -8 57 -11
15 -5 25 2 43 29 l22 35 58 -30 c88 -45 86 -42 65 -78 l-18 -32 47 -47 47 -47
41 19 c46 21 48 20 91 -61 l23 -42 -28 -23 -27 -24 19 -45 c10 -25 24 -66 32
-93 12 -44 15 -48 52 -53 l39 -7 -3 -91 -3 -91 -37 -3 c-37 -3 -38 -4 -58 -70
-11 -37 -27 -78 -34 -92 -13 -22 -12 -28 14 -60 l28 -36 -39 -52 c-22 -29 -44
-52 -50 -52 -5 0 -23 10 -39 21 l-28 22 -41 -34 c-43 -35 -42 -33 -25 -103 5
-21 -1 -27 -57 -55 -58 -29 -63 -30 -75 -13 -43 60 -37 57 -97 43 -56 -12 -67
-23 -67 -67 0 -23 -2 -24 -75 -24 l-75 0 0 43 0 42 -57 14 c-61 14 -63 13 -93
-38 -7 -13 -14 -12 -47 3 -22 9 -52 28 -68 40 -28 22 -28 23 -11 52 18 30 18
30 -17 68 l-36 38 -34 -21 c-19 -11 -38 -21 -43 -21 -12 0 -74 96 -74 115 0 8
9 20 20 27 25 16 25 30 0 93 -11 27 -24 69 -30 93 -10 39 -13 42 -44 42 -33 0
-33 1 -40 53 -3 28 -6 69 -6 90 0 34 2 37 28 37 40 0 50 10 62 64 6 26 17 64
26 84 15 37 15 37 -16 63 l-32 27 27 43 c50 80 53 82 92 59 l34 -20 45 36 c48
40 51 49 28 82 -22 31 -15 42 48 76 l55 30 29 -33 29 -32 50 12 c57 14 65 22
65 66 0 25 5 33 23 36 35 7 90 7 115 1z m-3651 -196 c17 -24 70 -90 118 -148
105 -128 129 -170 120 -216 -7 -40 -47 -74 -86 -74 -38 0 -79 42 -213 219
l-109 143 34 26 c19 15 50 41 69 59 19 18 35 33 36 33 0 0 14 -19 31 -42z
m-1459 6 c40 -28 19 -79 -30 -72 -27 4 -37 50 -17 74 15 18 19 18 47 -2z m345
-163 c4 -1 7 -18 7 -39 l0 -39 62 -17 c50 -14 63 -15 69 -4 30 53 32 53 88 23
70 -39 75 -46 54 -83 l-18 -31 34 -33 c19 -18 40 -43 49 -56 l14 -22 33 20 33
20 14 -22 c8 -13 23 -38 32 -57 18 -33 17 -33 -10 -62 l-27 -29 12 -70 13 -70
34 0 34 0 0 -70 0 -70 -40 0 c-25 0 -40 -5 -40 -12 0 -7 -14 -40 -30 -73 -36
-71 -35 -70 -10 -95 l21 -21 -33 -45 c-45 -64 -56 -71 -71 -50 -16 22 -56 18
-71 -7 -9 -14 -7 -20 7 -28 29 -17 20 -33 -39 -69 l-56 -33 -22 27 c-22 28
-22 28 -79 16 l-57 -11 0 -40 0 -40 -72 3 -73 3 -3 37 c-3 34 -7 38 -49 52
-47 16 -47 16 -75 -11 l-28 -27 -56 27 -55 27 18 30 c16 28 16 31 0 47 -16 16
-19 16 -49 -1 l-31 -19 -24 29 c-13 16 -31 42 -39 58 -15 26 -14 30 6 51 l21
23 -30 61 c-17 33 -31 67 -31 76 0 11 -11 15 -40 15 -35 0 -40 3 -40 24 0 13
-3 44 -6 70 l-7 46 36 0 c32 0 37 4 42 28 3 15 10 45 15 67 9 38 7 42 -22 66
l-30 25 26 51 c32 64 40 69 73 48 14 -9 28 -13 33 -8 4 4 26 29 49 55 l43 47
-19 31 -18 32 30 24 c17 14 42 32 57 40 26 13 28 13 53 -21 26 -33 28 -34 53
-21 15 7 39 16 55 20 21 5 27 12 27 34 0 59 17 64 153 53z m-689 -57 c9 -3 16
-13 16 -21 0 -10 -6 -13 -16 -9 -8 3 -12 2 -9 -4 3 -6 2 -10 -4 -10 -15 0 -22
16 -15 34 7 18 7 18 28 10z m1477 -134 c28 -16 25 -65 -5 -85 -48 -32 -100 32
-61 75 20 22 37 25 66 10z m260 -71 c22 -22 19 -55 -9 -76 -22 -18 -39 -16
-62 7 -24 24 -25 38 -4 68 19 28 48 28 75 1z m4597 -31 c-2 -13 -10 -23 -18
-23 -8 0 -16 10 -18 23 -3 17 2 22 18 22 16 0 21 -5 18 -22z m-6474 -211 c14
-22 -4 -52 -30 -52 -14 0 -20 8 -22 29 -5 44 29 59 52 23z m6711 -157 l0 -65
-92 -3 -93 -3 0 65 c0 75 -1 75 115 72 l70 -1 0 -65z m-5 -305 c0 -127 -1
-138 -25 -175 -25 -39 -26 -40 -84 -40 -44 0 -60 4 -65 16 -3 9 -6 87 -6 175
l0 159 90 0 90 0 0 -135z m-6792 73 c13 -14 47 -28 80 -34 l57 -11 -60 -2
c-50 -1 -64 -5 -84 -27 l-24 -25 -33 36 c-33 38 -54 33 -33 -7 11 -21 11 -22
-4 -9 -23 18 -21 43 4 75 26 32 64 34 97 4z m6250 -42 c4 -33 -13 -56 -42 -56
-47 0 -63 57 -25 84 30 20 63 6 67 -28z m-2654 -41 c214 -35 448 -91 546 -130
183 -74 307 -152 434 -275 140 -135 235 -272 297 -429 17 -42 49 -107 71 -146
113 -196 199 -415 237 -602 114 -557 -26 -1120 -391 -1569 -59 -74 -60 -74
-41 -98 10 -12 51 -66 91 -119 l72 -97 0 -210 0 -210 -488 0 -488 0 -159 -45
c-211 -60 -357 -79 -545 -72 -181 7 -302 28 -453 78 l-117 39 -430 0 -429 0
-3 394 -3 394 -28 22 c-61 48 -175 233 -246 400 -48 113 -94 269 -118 400 -25
137 -25 506 1 645 51 281 198 624 350 819 l46 59 0 354 0 353 493 0 c407 0
502 3 543 15 46 14 197 39 289 49 83 9 374 -3 469 -19z m2738 -72 c10 -9 18
-25 18 -36 0 -54 -76 -78 -105 -33 -37 56 36 115 87 69z m-5703 -164 c11 -12
21 -39 23 -65 l3 -44 -547 0 -548 0 0 65 0 65 525 0 c519 0 524 0 544 -21z
m6346 -4 c34 -33 35 -96 1 -130 -48 -48 -114 -45 -146 8 -28 46 -25 83 9 118
39 39 100 41 136 4z m-240 -92 c3 -27 15 -65 26 -86 16 -31 19 -59 19 -157 l0
-120 -100 0 -100 0 0 205 0 205 74 0 74 0 7 -47z m-589 -106 c21 -19 52 -38
68 -44 40 -13 44 -31 10 -43 -32 -13 -136 -123 -145 -154 -6 -19 -7 -19 -14 7
-5 18 -21 35 -47 48 -75 38 -97 116 -50 179 21 27 48 37 103 39 27 1 45 -7 75
-32z m-5664 -23 c10 -17 22 -52 27 -77 l8 -47 -161 -2 c-310 -3 -551 3 -559
16 -4 6 -6 30 -4 54 5 42 22 64 67 84 8 4 147 6 309 5 l295 -2 18 -31z m6558
-395 l0 -360 -35 -15 c-28 -11 -112 -14 -470 -14 l-436 0 3 43 3 42 385 0
c345 0 388 2 416 17 17 10 35 25 38 34 9 23 7 507 -2 520 -4 6 -24 14 -44 18
-35 6 -38 9 -38 41 l0 35 90 0 90 0 0 -361z m-6250 161 c0 -5 -4 -10 -10 -10
-5 0 -10 5 -10 10 0 6 5 10 10 10 6 0 10 -4 10 -10z m5790 -80 c74 -11 140
-23 147 -25 20 -7 -12 -70 -34 -68 -10 1 -84 10 -165 20 l-148 18 0 36 c0 44
5 49 39 44 14 -3 87 -14 161 -25z m-102 -132 c7 -7 12 -26 12 -44 0 -27 -5
-34 -31 -43 -57 -20 -89 24 -59 80 12 22 59 26 78 7z m-5968 -57 l0 -39 -252
-4 c-200 -4 -258 -2 -275 9 -25 15 -27 21 -13 43 8 12 53 16 267 20 142 3 261
7 266 8 4 1 7 -16 7 -37z m-977 -158 c25 -23 23 -87 -5 -113 -48 -44 -128 -11
-128 53 0 76 76 110 133 60z m941 21 c16 -6 21 -39 10 -68 -5 -14 -28 -16
-144 -16 -129 0 -138 1 -143 20 -3 11 -3 29 0 40 5 17 16 20 107 23 55 1 113
4 128 5 14 1 33 -1 42 -4z m-595 -79 c36 -18 71 -77 71 -119 0 -69 -81 -138
-144 -122 -41 10 -85 55 -96 97 -29 107 73 194 169 144z m601 -135 l0 -40
-140 0 c-133 0 -140 1 -141 20 -1 11 -2 26 -3 32 -1 18 44 25 172 27 l112 1 0
-40z m6201 -113 c25 -34 95 -134 154 -222 l108 -160 -213 -3 c-117 -1 -216 0
-219 4 -3 3 2 11 13 18 105 64 122 94 90 162 -28 59 -73 74 -214 74 l-120 0 0
95 0 95 178 0 177 0 46 -63z m-6917 -132 c3 -27 6 -74 6 -103 l0 -53 -57 6
c-105 11 -98 5 -109 96 -9 77 -8 83 13 112 34 46 42 48 93 19 45 -25 48 -29
54 -77z m724 68 l-3 -38 -142 -3 -141 -3 -7 30 c-4 17 -4 35 0 41 4 6 63 10
151 10 l145 0 -3 -37z m-2 -175 c-2 -18 -4 -36 -5 -40 0 -3 -83 -8 -183 -10
-152 -3 -189 -6 -216 -21 -97 -52 -96 -204 1 -250 28 -14 66 -17 191 -17 l156
0 0 -42 0 -43 -182 3 c-208 4 -246 14 -292 75 -36 46 -59 122 -51 167 17 103
80 181 160 201 16 4 118 7 227 8 l196 1 -2 -32z m-88 -191 l3 -37 -115 0
c-103 0 -115 2 -121 19 -13 42 2 50 103 54 54 1 104 3 112 2 10 0 16 -13 18
-38z m-889 -43 c12 -15 21 -37 21 -50 0 -26 -35 -68 -50 -59 -4 3 -10 -1 -13
-7 -3 -10 -12 -7 -33 8 -41 30 -45 84 -8 113 36 28 58 27 83 -5z m7552 21 c3
-2 3 -20 1 -40 l-4 -35 -424 0 -424 0 0 40 0 40 423 0 c233 0 426 -2 428 -5z
m-7316 -88 c19 -28 19 -57 -1 -85 -38 -55 -140 2 -118 65 18 52 89 63 119 20z
m7150 -125 c37 -57 109 -108 187 -129 l58 -16 0 -69 0 -68 -475 0 -475 0 0 69
0 69 69 21 c81 25 188 93 216 138 l20 32 185 0 185 0 30 -47z m-6210 -52 c50
-21 99 -41 111 -44 19 -6 22 -16 28 -119 3 -61 8 -121 11 -132 4 -16 -9 -30
-66 -70 -39 -27 -77 -58 -84 -68 -13 -18 -14 -18 -24 1 -6 12 -11 30 -11 41 0
11 -4 23 -10 26 -5 3 -10 16 -10 28 0 13 -7 32 -15 43 -8 12 -11 24 -7 28 3 4
0 11 -8 16 -12 8 -12 10 -1 10 10 0 11 4 3 13 -14 17 -34 131 -26 151 3 9 2
22 -4 29 -5 6 -12 31 -15 55 -6 50 -12 51 128 -8z m5354 -5 c1 -32 -2 -55 -8
-55 -6 0 -8 -12 -5 -30 4 -20 1 -39 -11 -56 -9 -15 -12 -23 -5 -19 8 5 10 -3
5 -32 -10 -61 -28 -122 -36 -118 -3 3 -9 -16 -12 -41 -2 -25 -10 -51 -17 -57
-10 -9 -11 -9 -5 2 5 10 4 12 -4 7 -6 -4 -8 -13 -4 -19 11 -18 12 -38 2 -31
-5 3 -6 10 -3 16 4 7 2 8 -4 4 -6 -4 -8 -14 -5 -23 4 -10 2 -14 -5 -10 -7 5
-15 -13 -23 -50 -7 -32 -19 -65 -27 -73 -13 -13 -14 -13 -9 1 27 78 47 163 40
168 -5 3 -41 30 -82 60 -72 53 -73 55 -67 90 4 20 9 77 13 128 l6 92 59 26
c52 24 183 72 199 74 3 1 7 -24 8 -54z m-6589 -30 c16 -8 33 -22 38 -31 8 -14
16 -14 85 -2 42 8 74 11 72 8 -3 -4 -19 -10 -37 -14 -92 -18 -108 -26 -108
-52 0 -78 -87 -137 -153 -103 -39 20 -57 51 -57 102 0 40 5 53 29 78 34 33 83
39 131 14z m818 -37 c17 -17 17 -379 0 -396 -18 -18 -46 -14 -58 8 -15 28 -12
357 3 381 13 22 37 25 55 7z m182 -7 c6 -11 10 -91 10 -188 0 -136 -3 -173
-16 -191 -18 -26 -49 -29 -58 -6 -12 31 -7 379 6 392 18 18 46 14 58 -7z
m-675 -266 c28 -27 32 -63 10 -104 -38 -74 -145 -44 -145 39 0 81 81 120 135
65z m6818 -44 c96 -33 155 -71 222 -142 101 -107 145 -224 145 -378 -1 -87
-14 -141 -57 -230 -41 -87 -156 -210 -216 -232 -20 -7 -37 -17 -37 -22 0 -5
-7 -6 -16 -3 -10 4 -13 2 -8 -6 5 -8 2 -9 -9 -5 -10 3 -17 2 -17 -2 0 -11
-112 -31 -173 -31 -217 0 -440 174 -497 389 -16 60 -13 218 5 298 56 239 274
403 520 389 44 -3 106 -14 138 -25z m494 -77 c3 -8 -2 -23 -11 -32 -14 -15
-18 -15 -31 -1 -9 9 -13 23 -9 32 8 21 43 22 51 1z m-7552 -23 c10 -32 81 -89
125 -101 67 -18 138 8 192 70 45 53 56 56 131 43 l38 -6 -3 -103 -3 -104 102
0 c56 0 104 -3 107 -8 2 -4 2 -45 -1 -90 l-6 -82 -408 0 -409 0 -1 58 c-1 31
-3 121 -5 200 l-3 142 69 0 c59 0 70 -3 75 -19z m6322 -153 c-3 -7 -5 -2 -5
12 0 14 2 19 5 13 2 -7 2 -19 0 -25z m-4767 -105 c23 -54 58 -131 76 -171 l33
-73 -80 -135 c-94 -157 -95 -130 10 -299 l67 -110 132 0 131 0 47 -54 47 -53
9 -112 9 -111 43 -40 c71 -66 277 -247 333 -293 l52 -43 99 75 98 76 122 -52
121 -53 2 -80 c1 -44 3 -93 3 -110 1 -27 6 -31 81 -56 44 -15 87 -28 95 -28 9
0 31 33 55 80 22 45 43 83 47 85 3 2 62 -6 130 -18 l125 -23 26 -46 c14 -26
47 -79 72 -118 l45 -71 177 2 177 3 70 117 c65 108 74 118 106 123 19 3 77 14
128 24 l93 17 46 -85 c26 -47 47 -87 49 -89 1 -2 44 9 94 24 l92 28 -4 107 -3
108 124 53 c68 29 127 54 131 56 4 1 44 -29 91 -68 46 -38 89 -70 94 -70 15 0
171 120 345 265 81 67 156 127 165 133 15 8 17 18 12 66 -4 31 -10 81 -13 111
-6 52 -5 58 21 85 l29 30 127 0 c109 0 128 2 133 17 4 9 26 46 50 82 24 36 58
91 75 122 l31 55 -80 131 c-44 72 -80 138 -80 148 0 9 24 69 53 133 30 64 62
136 72 160 13 30 23 41 34 37 18 -5 244 -35 267 -35 7 0 14 8 15 18 0 11 2 12
6 4 3 -7 -1 -20 -8 -28 -11 -13 -9 -14 17 -9 25 5 26 4 7 -4 -24 -11 -28 -21
-41 -118 -6 -41 -5 -66 2 -73 7 -7 3 -10 -11 -10 -24 0 -42 -38 -24 -50 8 -5
9 -14 2 -33 -7 -17 -7 -27 -1 -27 6 0 10 -4 10 -10 0 -5 -7 -10 -15 -10 -11 0
-14 -7 -10 -23 4 -15 1 -28 -9 -36 -9 -8 -16 -29 -16 -50 0 -32 -18 -82 -20
-56 -3 29 -37 -92 -43 -147 -1 -13 -7 -16 -22 -12 -17 6 -18 5 -7 -9 8 -9 11
-21 7 -28 -6 -8 -10 -8 -15 1 -6 9 -13 3 -24 -19 -9 -17 -21 -31 -27 -31 -6 0
-9 -7 -5 -15 3 -9 0 -15 -10 -15 -10 0 -14 -6 -10 -15 9 -24 -3 -43 -25 -38
-15 4 -18 2 -13 -11 4 -12 0 -16 -15 -16 -12 0 -21 -6 -21 -14 0 -8 -7 -16
-15 -20 -8 -3 -15 -9 -14 -13 3 -22 -15 -53 -32 -53 -36 0 -59 -17 -59 -43 0
-8 -7 -17 -15 -21 -8 -3 -20 -17 -25 -31 -5 -14 -16 -25 -25 -25 -8 0 -15 -7
-15 -16 0 -23 -40 -56 -59 -49 -9 3 -12 3 -8 -1 9 -10 -22 -44 -40 -44 -8 0
-13 -6 -11 -12 3 -7 -14 -25 -37 -39 -23 -15 -45 -35 -49 -45 -6 -16 -9 -16
-17 -4 -9 13 -10 13 -6 -1 3 -10 -3 -21 -18 -29 -22 -12 -39 -43 -36 -64 1 -5
-6 -3 -16 4 -10 8 -15 10 -11 6 11 -12 -29 -39 -44 -30 -7 5 -8 3 -4 -5 10
-16 -21 -51 -45 -51 -10 0 -34 -14 -54 -31 -28 -25 -33 -34 -24 -45 8 -10 8
-14 0 -14 -6 0 -11 5 -11 10 0 6 -5 10 -11 10 -6 0 -9 -7 -5 -15 4 -12 2 -13
-12 -6 -15 8 -22 4 -36 -20 -9 -16 -22 -27 -27 -23 -5 3 -16 0 -25 -6 -12 -11
-12 -14 3 -26 16 -12 15 -13 -10 -4 -39 14 -54 13 -39 -2 19 -19 14 -30 -8
-18 -16 9 -20 8 -20 -5 0 -8 -8 -14 -17 -13 -49 4 -83 -3 -83 -16 0 -8 6 -16
13 -19 6 -2 1 -4 -13 -4 -14 1 -38 -2 -53 -6 -21 -6 -27 -5 -21 4 4 6 -7 1
-25 -12 -21 -15 -44 -23 -69 -22 -20 1 -42 -3 -49 -9 -6 -5 -20 -9 -30 -8 -41
5 -63 -1 -63 -15 0 -16 -25 -21 -34 -6 -3 5 -24 5 -48 0 -49 -9 -196 -65 -216
-81 -9 -8 -16 -8 -24 0 -16 16 -33 15 -20 -1 9 -10 4 -17 -21 -31 l-32 -17 22
19 23 20 -35 -1 c-19 -1 -35 -5 -35 -10 0 -4 6 -5 13 -1 6 4 3 -2 -8 -13 -12
-13 -24 -17 -29 -12 -16 15 -39 10 -33 -6 4 -8 2 -17 -3 -20 -4 -3 -10 0 -12
6 -3 8 -16 10 -42 5 -21 -4 -35 -10 -32 -13 12 -12 -32 -32 -71 -31 -22 0 -57
-5 -77 -12 -41 -13 -218 -18 -253 -6 -18 6 -23 3 -24 -11 0 -17 -1 -17 -8 0
-8 22 -20 24 -32 5 -6 -9 -11 -10 -16 -2 -5 6 -35 14 -68 18 -86 10 -89 11
-103 20 -7 4 -20 2 -28 -5 -14 -11 -15 -10 -12 11 3 21 -1 23 -42 25 -25 1
-71 14 -101 29 -56 26 -101 37 -69 16 8 -5 11 -10 5 -10 -14 0 -42 19 -30 21
6 1 -6 5 -25 9 -19 4 -73 24 -120 44 -84 35 -142 44 -185 27 -25 -10 -45 -3
-39 13 7 18 -35 34 -115 42 -41 4 -68 11 -65 16 4 6 -6 9 -22 8 -16 -1 -40 -1
-54 0 -23 1 -23 2 -5 9 16 7 13 9 -20 15 -22 4 -52 14 -67 22 -15 8 -38 14
-53 14 -14 0 -25 6 -25 14 0 7 -22 23 -49 35 -27 11 -56 27 -64 35 -7 8 -34
19 -58 24 -38 8 -40 10 -14 11 l30 2 -24 13 c-14 8 -30 12 -36 9 -13 -4 -37
20 -34 33 4 17 -13 44 -28 44 -8 0 -12 4 -9 9 3 4 -6 6 -21 3 -23 -4 -25 -2
-20 17 3 11 1 21 -5 21 -13 0 -98 86 -98 99 0 6 -3 10 -7 10 -27 -4 -42 6 -61
42 -12 22 -22 47 -22 54 0 7 -7 18 -15 25 -12 10 -15 10 -15 -3 0 -8 6 -17 13
-20 6 -2 8 -8 4 -13 -9 -9 -117 100 -117 118 0 6 -8 8 -18 6 -15 -4 -18 -1
-14 18 3 19 0 24 -17 24 -15 0 -21 6 -21 23 0 23 -39 70 -41 51 -1 -5 -5 5 -9
21 l-7 30 -11 -25 c-8 -19 -11 -20 -11 -7 -1 10 -12 30 -25 44 -13 14 -22 32
-19 40 4 9 0 11 -13 6 -12 -4 -15 -3 -10 5 4 7 3 12 -2 12 -5 0 -12 9 -15 21
-3 11 -15 23 -27 26 -11 3 -19 11 -17 17 2 6 -4 19 -13 28 -9 10 -21 28 -27
41 -27 57 -37 83 -38 92 0 6 -4 13 -8 16 -13 9 -26 79 -16 79 14 0 11 17 -6
34 -8 8 -14 30 -14 48 1 18 -1 56 -5 83 -4 28 -8 64 -10 82 -1 17 -8 38 -15
46 -7 10 -8 16 -2 19 7 2 5 13 -4 28 -8 14 -18 32 -22 40 -13 28 -32 40 -55
36 -13 -3 -33 -5 -46 -5 -13 -1 -20 -5 -17 -11 3 -5 0 -10 -7 -10 -9 0 -9 -3
2 -10 13 -9 13 -11 0 -20 -13 -9 -13 -11 0 -19 9 -7 -29 -11 -113 -13 l-127
-3 0 93 0 92 193 1 c137 1 219 6 287 19 52 9 100 18 106 19 7 0 31 -43 54 -96z
m-352 -319 c-3 -3 -2 -21 2 -40 8 -32 7 -34 -19 -34 l-27 0 4 -116 c3 -66 -1
-147 -8 -192 -16 -102 -62 -237 -81 -237 -8 0 -20 -8 -27 -17 -20 -28 -35 -22
-30 12 3 17 3 30 1 30 -1 0 -12 -18 -23 -40 -11 -22 -25 -40 -30 -40 -14 0
-14 0 26 90 19 45 38 98 41 118 6 35 4 34 -95 -68 -124 -129 -137 -138 -152
-107 -10 20 -10 20 3 5 8 -10 17 -15 21 -11 3 3 -1 14 -9 23 -14 15 -12 21 18
56 19 21 75 86 125 144 51 58 92 113 92 123 0 35 4 37 -263 -190 -87 -75 -106
-84 -127 -58 -10 12 -1 24 51 73 40 38 59 63 55 71 -5 7 -15 10 -25 7 -12 -5
-12 -3 3 9 19 15 41 11 31 -6 -12 -19 8 -8 25 14 10 12 52 50 94 82 71 56 99
94 59 81 -10 -3 -108 -51 -218 -105 l-200 -99 -24 24 c-14 13 -23 25 -20 27 9
9 232 127 248 132 9 3 17 14 18 24 2 18 -2 18 -50 7 -29 -7 -83 -26 -122 -43
-38 -17 -89 -37 -112 -44 -24 -7 -43 -15 -43 -19 0 -17 164 -191 241 -256 128
-108 176 -142 258 -184 122 -61 211 -88 343 -105 209 -27 292 -60 377 -150 55
-58 91 -123 114 -205 24 -86 27 -113 37 -331 10 -218 37 -371 79 -440 11 -18
17 -37 14 -43 -3 -6 -3 -8 2 -4 4 4 8 27 9 50 2 24 28 110 59 193 31 83 57
155 57 161 0 9 -13 10 -51 5 -8 -1 -33 -59 -59 -136 -11 -32 -27 -66 -35 -74
-13 -14 -15 -10 -15 31 0 25 9 74 19 108 l20 62 -25 -5 c-19 -3 -24 0 -24 17
0 36 14 45 95 62 159 33 275 4 371 -91 61 -60 103 -145 167 -331 25 -72 60
-160 77 -195 44 -87 146 -185 242 -232 69 -34 113 -50 78 -27 -22 14 -28 490
-6 490 8 0 21 3 30 6 14 5 16 -23 18 -256 l3 -263 45 -13 c25 -8 48 -14 53
-14 4 0 7 128 7 285 l0 285 30 0 30 0 0 -289 0 -288 38 -7 c79 -13 72 -41 72
294 l0 300 24 0 c21 0 24 -6 30 -52 3 -29 6 -165 6 -302 l0 -248 23 6 c12 3
37 6 56 6 l34 0 -6 285 -7 285 25 0 c13 0 26 -4 29 -8 3 -5 6 -129 6 -275 l2
-267 26 6 c15 4 40 12 56 18 l29 11 -2 253 c-2 199 1 252 11 252 7 0 3 7 -8
15 -39 27 -168 55 -299 66 -175 15 -200 22 -95 30 81 6 81 6 -20 3 -58 -1
-118 -3 -133 -3 -42 -1 -23 -21 21 -22 33 -2 34 -2 8 -6 -16 -3 -39 1 -52 7
-18 10 -37 9 -94 -4 -74 -16 -190 -63 -190 -76 0 -6 -44 -30 -56 -30 -3 0 -2
5 2 11 4 7 -1 7 -16 -1 -20 -11 -22 -10 -17 4 4 9 1 16 -5 16 -21 0 13 26 83
64 290 158 689 154 1043 -12 82 -39 256 -148 256 -161 0 -4 -15 -22 -34 -40
l-33 -32 -54 33 c-30 19 -65 39 -79 45 l-25 10 3 -132 c4 -126 3 -134 -18
-155 -12 -12 -24 -20 -26 -18 -2 3 -6 78 -9 169 l-5 164 -42 22 c-45 22 -102
41 -81 26 8 -6 14 -79 19 -245 l7 -236 66 36 c122 66 217 142 426 342 137 130
236 202 357 260 138 66 219 83 393 83 159 0 258 -15 431 -68 156 -48 257 -67
356 -68 53 -1 99 1 103 5 6 5 -63 194 -88 243 -9 17 -16 5 -43 -80 l-32 -100
-34 3 c-18 2 -35 6 -37 8 -6 6 44 215 76 319 65 210 190 382 325 450 83 41 97
43 126 12 l21 -22 -52 -28 c-121 -63 -218 -181 -296 -360 l-42 -97 24 -53 c32
-67 85 -213 93 -255 4 -17 7 -32 8 -32 20 0 107 34 100 38 -10 7 -110 238
-139 321 -35 101 -1 129 42 34 59 -134 116 -290 117 -319 1 -29 2 -30 29 -20
93 35 243 176 293 276 19 37 23 40 29 21 3 -12 3 -31 0 -42 -5 -16 -4 -19 6
-13 7 4 0 -15 -16 -42 -102 -175 -258 -297 -436 -339 -88 -20 -235 -19 -371 5
-62 11 -129 22 -148 26 -24 4 -31 3 -21 -4 19 -14 16 -101 -4 -121 -14 -14
-17 -14 -25 -1 -15 23 -13 130 3 131 6 1 -10 7 -38 14 -57 15 -117 19 -98 7
13 -8 36 -288 26 -304 -7 -13 5 -9 50 13 68 35 129 79 174 127 42 44 43 44 88
36 l46 -9 -68 -68 c-239 -237 -525 -345 -837 -317 -55 5 -130 17 -166 25 -69
16 -220 74 -220 85 0 3 16 21 35 40 l35 34 57 -19 c32 -11 64 -21 71 -23 9 -3
12 28 12 127 0 72 -3 131 -7 131 -16 0 -126 -93 -290 -247 -195 -183 -287
-252 -415 -313 -125 -60 -219 -81 -383 -87 -130 -5 -149 -3 -245 21 -177 46
-298 110 -417 220 -100 92 -150 183 -245 436 -34 92 -98 210 -114 210 -3 0 -2
-4 1 -10 5 -8 -69 -194 -122 -307 -14 -31 -53 -47 -53 -23 0 11 99 269 125
328 9 20 20 31 28 27 6 -4 -6 10 -27 30 l-40 35 -19 -52 c-10 -29 -46 -126
-80 -215 -55 -145 -64 -163 -84 -163 -13 0 -23 5 -23 11 0 5 34 100 75 210 41
109 75 206 75 214 0 14 -46 33 -56 23 -2 -3 -29 -68 -58 -144 -29 -77 -66
-166 -81 -199 -15 -33 -28 -66 -29 -73 -1 -7 -8 -18 -14 -24 -7 -7 -12 -18
-12 -26 0 -7 -4 -11 -9 -7 -6 3 -6 -7 -1 -26 8 -28 8 -30 -8 -17 -45 35 -87
114 -113 216 -16 60 -22 132 -29 322 -6 144 -16 273 -24 313 -45 204 -153 307
-357 342 -52 9 -121 20 -154 26 -95 16 -253 67 -340 111 -256 127 -496 362
-619 605 -30 61 -32 70 -9 52 15 -12 16 -12 9 6 -6 16 -5 17 5 8 6 -7 24 -9
39 -7 21 5 32 -1 53 -26 15 -17 27 -36 27 -41 0 -6 5 -7 12 -3 7 4 8 3 4 -5
-4 -6 4 -25 18 -41 25 -30 42 -27 29 6 -4 10 -2 15 3 11 5 -3 10 2 10 12 0 10
-6 18 -12 18 -7 0 -10 -6 -7 -13 2 -6 0 -14 -5 -18 -5 -3 -8 5 -7 16 1 12 10
25 21 29 17 7 17 8 2 8 -10 1 -18 6 -18 12 0 6 9 9 20 6 21 -5 28 7 10 18 -5
3 -10 11 -10 16 0 6 6 7 13 3 7 -5 6 0 -3 11 -9 11 -10 16 -2 11 7 -4 12 -1
12 8 0 9 6 17 13 17 56 7 -143 17 -335 18 l-238 1 0 40 0 40 667 0 c366 0 664
-2 661 -6z m4924 -389 c-3 -5 -7 -4 -10 3 -2 7 -8 10 -13 7 -5 -4 -6 1 -3 9 5
12 9 13 19 3 7 -7 10 -16 7 -22z m398 -43 c40 -63 162 -223 233 -305 42 -49
46 -57 37 -81 -5 -14 -7 -26 -4 -26 4 0 1 -6 -5 -13 -6 -8 -8 -17 -4 -20 12
-13 -13 -7 -26 6 -11 10 -13 9 -7 -6 3 -10 6 -22 6 -27 0 -5 15 -13 34 -20 27
-8 33 -15 29 -30 -4 -14 -14 -20 -32 -20 -43 0 -188 26 -310 55 l-113 27 6 30
c3 17 6 64 6 104 0 41 4 74 9 74 14 0 20 -25 27 -100 6 -63 9 -69 32 -73 28
-5 28 -13 2 181 -6 46 -8 93 -4 104 14 45 35 -10 59 -152 22 -137 31 -159 63
-160 15 0 15 -1 -3 123 -13 85 -22 113 -54 167 -67 113 -111 207 -91 195 6 -3
10 -1 10 5 0 6 5 8 10 5 6 -3 10 -2 10 3 0 5 10 10 23 10 17 0 32 -15 57 -56z
m-435 38 c3 -5 1 -10 -4 -10 -6 0 -11 5 -11 10 0 6 2 10 4 10 3 0 8 -4 11 -10z
m-5425 -38 c-13 -9 -35 -27 -48 -39 -13 -12 -30 -19 -38 -16 -19 7 -17 9 48
44 60 32 75 36 38 11z m755 -138 c25 -10 47 -62 40 -95 -20 -88 -155 -75 -158
16 -2 60 59 101 118 79z m4718 -174 c30 -34 34 -67 12 -110 -19 -37 -43 -50
-94 -50 -56 0 -101 40 -103 91 -3 99 118 144 185 69z m-563 -193 c0 -2 -10
-12 -22 -23 l-23 -19 19 23 c18 21 26 27 26 19z m-4340 -80 c0 -7 -34 -41 -75
-75 -69 -58 -75 -61 -75 -38 0 33 41 79 93 105 49 24 57 26 57 8z m4932 -115
c39 -97 48 -128 41 -148 -8 -24 -13 -17 -62 85 -74 156 -83 197 -44 189 9 -2
35 -53 65 -126z m73 119 c-3 -5 -1 -12 4 -15 11 -7 11 -55 0 -62 -4 -2 -17 13
-29 36 -22 43 -18 50 14 23 16 -14 18 -14 8 -2 -6 9 -9 19 -5 22 9 10 15 8 8
-2z m-4865 -21 c18 -11 8 -23 -132 -152 -78 -72 -99 -87 -104 -73 -4 9 0 28 7
42 14 26 193 193 206 193 5 0 15 -5 23 -10z m4707 -195 c66 -147 88 -225 63
-225 -19 0 -184 355 -175 378 15 39 42 1 112 -153z m-4588 141 c16 -20 -246
-291 -271 -281 -10 4 -18 13 -18 20 0 17 248 275 265 275 7 0 18 -6 24 -14z
m-504 -6 c16 13 28 -2 45 -55 18 -57 65 -147 94 -182 46 -55 186 -131 186
-102 0 26 226 282 244 276 6 -2 12 -10 14 -18 3 -15 -85 -126 -178 -226 l-48
-51 50 -7 c27 -4 51 -5 53 -4 1 2 32 42 69 88 65 83 66 84 76 57 14 -37 16
-30 -42 -93 l-53 -56 58 7 c56 7 57 7 57 -17 0 -30 -6 -32 -109 -48 -64 -10
-98 -10 -158 -1 -214 34 -328 161 -377 417 -3 17 -3 24 0 17 4 -9 10 -10 19
-2z m4981 -190 c80 -177 113 -261 107 -277 -7 -20 -29 -15 -41 10 -67 142
-154 336 -164 368 -10 34 -9 42 3 49 7 5 17 6 21 2 5 -5 38 -73 74 -152z
m-132 -13 c58 -123 146 -333 146 -349 0 -9 -6 -21 -14 -27 -18 -15 -15 -20
-102 180 -83 193 -96 228 -88 251 10 32 22 20 58 -55z m-3321 -54 c-7 -2 -19
-2 -25 0 -7 3 -2 5 12 5 14 0 19 -2 13 -5z m2544 1 c-3 -3 -12 -4 -19 -1 -8 3
-5 6 6 6 11 1 17 -2 13 -5z m-2889 -16 c21 -21 14 -66 -13 -84 -32 -21 -56
-15 -74 17 -13 24 -13 29 2 53 19 28 63 36 85 14z m-198 -7 c0 -5 -7 -11 -15
-15 -9 -3 -15 0 -15 9 0 8 7 15 15 15 8 0 15 -4 15 -9z m2791 -59 c-7 -2 -18
1 -23 6 -8 8 -4 9 13 5 13 -4 18 -8 10 -11z m-2187 -108 c20 -19 21 -58 2 -73
-25 -21 -69 -9 -80 21 -17 50 42 89 78 52z m686 -4 c8 -5 11 -10 5 -10 -5 0
-17 5 -25 10 -8 5 -10 10 -5 10 6 0 17 -5 25 -10z m-531 -773 c-4 -5 -16 -3
-28 5 -20 12 -21 21 -21 156 0 139 1 143 23 151 l22 8 5 -156 c3 -86 2 -160
-1 -164z"/>
<path d="M5053 9153 c9 -2 23 -2 30 0 6 3 -1 5 -18 5 -16 0 -22 -2 -12 -5z"/>
<path d="M4988 9113 c7 -3 16 -2 19 1 4 3 -2 6 -13 5 -11 0 -14 -3 -6 -6z"/>
<path d="M4590 8916 c0 -2 7 -7 16 -10 8 -3 12 -2 9 4 -6 10 -25 14 -25 6z"/>
<path d="M4570 8894 c0 -8 5 -12 10 -9 6 4 8 11 5 16 -9 14 -15 11 -15 -7z"/>
<path d="M4647 8876 c10 -13 19 -23 21 -21 5 5 -22 45 -31 45 -4 0 0 -11 10
-24z"/>
<path d="M4540 8800 c0 -5 5 -10 11 -10 5 0 7 5 4 10 -3 6 -8 10 -11 10 -2 0
-4 -4 -4 -10z"/>
<path d="M5660 8840 c-8 -5 -10 -10 -5 -10 6 0 17 5 25 10 8 5 11 10 5 10 -5
0 -17 -5 -25 -10z"/>
<path d="M5603 8811 c0 -11 5 -18 9 -15 4 3 5 11 1 19 -7 21 -12 19 -10 -4z"/>
<path d="M6187 8655 c-4 -8 -2 -17 3 -20 6 -4 10 3 10 14 0 25 -6 27 -13 6z"/>
<path d="M3620 8736 c0 -2 7 -7 16 -10 8 -3 12 -2 9 4 -6 10 -25 14 -25 6z"/>
<path d="M3316 8715 c-95 -34 -176 -149 -176 -249 0 -119 72 -223 185 -265
137 -52 296 13 356 144 22 48 25 152 5 207 -37 103 -149 178 -265 178 -36 -1
-83 -7 -105 -15z m60 -94 c85 -52 50 -181 -48 -181 -75 0 -120 59 -97 128 12
35 59 72 94 72 11 0 34 -9 51 -19z"/>
<path d="M3679 8243 c-13 -16 -12 -17 4 -4 9 7 17 15 17 17 0 8 -8 3 -21 -13z"/>
<path d="M5886 8465 c-9 -26 -7 -32 5 -12 6 10 9 21 6 23 -2 3 -7 -2 -11 -11z"/>
<path d="M4400 8461 c0 -5 5 -13 10 -16 6 -3 10 -2 10 4 0 5 -4 13 -10 16 -5
3 -10 2 -10 -4z"/>
<path d="M4345 8370 c-4 -6 5 -10 19 -10 14 0 26 5 26 10 0 6 -9 10 -19 10
-11 0 -23 -4 -26 -10z"/>
<path d="M4401 8364 c0 -11 3 -14 6 -6 3 7 2 16 -1 19 -3 4 -6 -2 -5 -13z"/>
<path d="M4421 8364 c0 -11 3 -14 6 -6 3 7 2 16 -1 19 -3 4 -6 -2 -5 -13z"/>
<path d="M5609 8343 c-7 -10 -9 -15 -5 -11 5 4 16 2 25 -5 14 -10 14 -10 3 5
-10 13 -10 17 0 21 8 3 8 6 2 6 -6 1 -18 -7 -25 -16z"/>
<path d="M4560 8225 c5 -7 6 -16 2 -21 -4 -5 -3 -5 2 -1 15 12 15 34 0 34 -9
0 -11 -4 -4 -12z"/>
<path d="M5755 8159 c-3 -4 2 -6 10 -5 21 3 28 13 10 13 -9 0 -18 -4 -20 -8z"/>
<path d="M4450 8141 c0 -5 5 -13 10 -16 6 -3 10 -2 10 4 0 5 -4 13 -10 16 -5
3 -10 2 -10 -4z"/>
<path d="M4435 8110 c10 -11 20 -20 22 -20 2 0 -2 9 -9 20 -7 11 -17 20 -22
20 -5 0 -1 -9 9 -20z"/>
<path d="M5569 8113 c-13 -16 -12 -17 4 -4 9 7 17 15 17 17 0 8 -8 3 -21 -13z"/>
<path d="M5078 7982 c-23 -3 -28 -8 -28 -33 0 -28 2 -29 45 -29 40 0 45 2 45
23 0 39 -11 46 -62 39z"/>
<path d="M2641 6454 c0 -11 3 -14 6 -6 3 7 2 16 -1 19 -3 4 -6 -2 -5 -13z"/>
<path d="M2500 5851 c0 -6 4 -13 10 -16 6 -3 7 1 4 9 -7 18 -14 21 -14 7z"/>
<path d="M4417 8741 c-4 -17 -3 -21 5 -13 5 5 8 16 6 23 -3 8 -7 3 -11 -10z"/>
<path d="M2662 8518 c-25 -25 -6 -68 30 -68 22 0 41 35 33 60 -7 22 -44 27
-63 8z"/>
<path d="M6092 7983 c5 -245 11 -275 61 -322 34 -31 143 -47 252 -36 74 7 82
10 117 45 36 35 38 41 39 101 1 92 -2 424 -4 425 -1 1 -91 5 -199 9 l-198 7 0
-25 c0 -20 6 -26 27 -29 39 -4 42 -28 4 -28 -26 0 -31 -4 -31 -25 0 -21 5 -25
29 -25 16 0 31 -6 35 -15 4 -12 -3 -15 -29 -15 -32 0 -35 -3 -35 -29 0 -26 4
-30 32 -33 46 -4 49 -28 4 -28 -34 0 -36 -2 -36 -35 0 -32 2 -35 30 -35 20 0
30 -5 30 -15 0 -10 -10 -15 -30 -15 -41 0 -44 -37 -3 -42 40 -5 40 -26 -1 -34
-40 -7 -42 -14 -21 -74 8 -24 13 -46 9 -49 -10 -10 -44 40 -46 68 0 14 -2 31
-3 36 -2 6 -3 108 -4 228 -1 193 -3 217 -17 217 -15 0 -16 -22 -12 -227z"/>
<path d="M2540 8266 c-28 -35 11 -93 48 -70 35 22 22 84 -18 84 -10 0 -23 -7
-30 -14z"/>
<path d="M7305 8026 c-156 -50 -286 -203 -316 -373 -32 -181 75 -385 244 -468
271 -132 556 -5 641 284 68 232 -82 494 -319 557 -62 17 -197 17 -250 0z m5
-101 c33 -17 60 -61 60 -97 0 -35 -34 -83 -69 -97 -72 -31 -151 22 -151 101 0
32 7 47 34 74 38 38 77 44 126 19z m169 -260 c33 -16 41 -33 41 -80 0 -64 -88
-99 -141 -56 -35 28 -33 95 4 127 32 28 56 30 96 9z m211 -297 c13 -25 13 -31
0 -55 -9 -16 -25 -29 -37 -31 -26 -4 -63 30 -63 58 0 28 37 62 63 58 12 -2 28
-15 37 -30z"/>
<path d="M2549 7697 c-104 -30 -199 -112 -247 -215 -24 -50 -27 -69 -27 -162
0 -95 3 -110 29 -164 77 -157 241 -245 405 -216 174 30 315 178 328 343 18
218 -152 415 -367 424 -41 1 -96 -3 -121 -10z m180 -254 c47 -36 66 -71 65
-123 -1 -56 -21 -92 -67 -120 -62 -39 -152 -17 -194 46 -26 41 -23 121 6 163
44 61 132 77 190 34z"/>
<path d="M2609 7372 c-46 -38 -17 -122 41 -122 41 0 71 29 72 69 2 61 -64 92
-113 53z"/>
<path d="M4213 6653 l-353 -3 0 -1685 0 -1685 310 0 310 0 0 565 0 565 214 0
213 0 40 -52 c71 -95 265 -348 462 -603 106 -137 232 -301 280 -362 l86 -113
373 0 c204 0 372 3 372 6 0 6 -92 127 -353 464 -154 198 -345 445 -474 612
-35 45 -63 84 -63 87 0 3 37 16 81 29 168 46 337 143 453 258 310 307 416 793
269 1238 -112 337 -378 567 -753 651 -87 19 -500 34 -880 32 -129 -1 -394 -3
-587 -4z m1276 -608 c121 -29 241 -112 303 -210 55 -89 72 -151 72 -280 1
-101 -3 -131 -22 -187 -47 -135 -141 -244 -258 -300 -115 -54 -156 -58 -651
-58 l-453 0 0 525 0 525 473 0 c386 0 484 -3 536 -15z"/>
<path d="M3576 6013 c-6 -14 -5 -15 5 -6 7 7 10 15 7 18 -3 3 -9 -2 -12 -12z"/>
<path d="M3476 5853 c-6 -14 -5 -15 5 -6 7 7 10 15 7 18 -3 3 -9 -2 -12 -12z"/>
<path d="M3366 5614 c-4 -9 -4 -19 -1 -22 2 -3 7 3 11 12 4 9 4 19 1 22 -2 3
-7 -3 -11 -12z"/>
<path d="M6813 5618 c3 -10 2 -20 -3 -23 -6 -4 -10 -12 -10 -18 0 -8 3 -8 9 2
6 9 11 10 15 2 4 -6 0 -18 -8 -27 -15 -15 -21 -34 -11 -34 12 0 36 50 29 62
-5 7 -9 19 -10 26 -2 8 -6 17 -10 20 -4 4 -4 -1 -1 -10z"/>
<path d="M6764 5495 c0 -60 1 -84 3 -52 2 32 2 81 0 110 -2 29 -3 3 -3 -58z"/>
<path d="M3340 5541 c0 -6 4 -13 10 -16 6 -3 7 1 4 9 -7 18 -14 21 -14 7z"/>
<path d="M6836 5535 c-9 -26 -7 -32 5 -12 6 10 9 21 6 23 -2 3 -7 -2 -11 -11z"/>
<path d="M6851 5504 c0 -11 3 -14 6 -6 3 7 2 16 -1 19 -3 4 -6 -2 -5 -13z"/>
<path d="M3326 5487 c-5 -15 -6 -31 -3 -34 4 -3 1 -15 -5 -27 -7 -11 -15 -41
-20 -66 -65 -355 -48 -638 58 -955 32 -98 129 -289 186 -369 l42 -59 9 29 c4
16 6 76 3 134 -4 58 -6 306 -6 553 0 246 -4 447 -8 447 -4 0 -7 -42 -7 -92 1
-51 -2 -109 -6 -128 l-6 -35 -2 38 c-1 36 -14 50 -24 25 -3 -7 -6 0 -6 15 -1
20 -7 30 -21 34 -22 6 -26 18 -9 29 6 3 15 0 20 -7 7 -11 9 -10 9 4 0 9 -7 17
-15 17 -23 0 -65 30 -65 46 0 16 -16 19 -25 4 -7 -11 -25 -4 -25 10 0 5 8 11
18 13 16 4 16 5 0 6 -10 0 -18 5 -18 11 0 6 -6 9 -12 8 -8 -2 -12 6 -10 20 2
16 -4 25 -20 31 -13 6 -18 10 -12 10 7 1 14 11 17 22 4 15 11 20 21 16 9 -4
16 -2 16 3 0 9 -21 13 -36 8 -4 -2 -11 8 -16 21 -6 17 -5 27 4 33 10 6 8 8 -4
8 -14 0 -18 8 -17 38 1 37 1 37 9 7 8 -33 12 -30 14 15 1 18 -4 30 -11 30 -17
0 -16 15 2 34 8 8 15 23 14 33 0 16 -1 16 -9 -2 -6 -17 -8 -14 -12 15 l-4 35
-8 -28z m-9 -179 c-2 -18 -4 -4 -4 32 0 36 2 50 4 33 2 -18 2 -48 0 -65z m43
-244 c0 -8 -4 -12 -10 -9 -5 3 -10 10 -10 16 0 5 5 9 10 9 6 0 10 -7 10 -16z
m69 -15 c-10 -6 -11 -9 -1 -9 6 0 12 -10 12 -22 -1 -21 -2 -21 -11 -5 -5 9
-16 17 -24 17 -11 0 -9 7 7 26 14 15 24 20 27 13 2 -6 -3 -15 -10 -20z m-29
11 c0 -5 -4 -10 -10 -10 -5 0 -10 5 -10 10 0 6 5 10 10 10 6 0 10 -4 10 -10z
m40 -100 c0 -5 -4 -10 -10 -10 -5 0 -10 5 -10 10 0 6 5 10 10 10 6 0 10 -4 10
-10z m80 0 c0 -5 -7 -7 -15 -4 -8 4 -15 8 -15 10 0 2 7 4 15 4 8 0 15 -4 15
-10z"/>
<path d="M6860 5466 c0 -8 4 -17 9 -20 5 -4 7 3 4 14 -6 23 -13 26 -13 6z"/>
<path d="M3370 5455 c0 -8 4 -15 10 -15 5 0 7 7 4 15 -4 8 -8 15 -10 15 -2 0
-4 -7 -4 -15z"/>
<path d="M6752 5350 c0 -14 2 -19 5 -12 2 6 2 18 0 25 -3 6 -5 1 -5 -13z"/>
<path d="M6742 5280 c0 -19 2 -27 5 -17 2 9 2 25 0 35 -3 9 -5 1 -5 -18z"/>
<path d="M3430 5250 c0 -5 5 -10 10 -10 6 0 10 5 10 10 0 6 -4 10 -10 10 -5 0
-10 -4 -10 -10z"/>
<path d="M6912 5240 c0 -14 2 -19 5 -12 2 6 2 18 0 25 -3 6 -5 1 -5 -13z"/>
<path d="M6891 5234 c0 -11 3 -14 6 -6 3 7 2 16 -1 19 -3 4 -6 -2 -5 -13z"/>
<path d="M3381 5211 c-10 -6 -9 -10 5 -15 20 -8 25 -4 16 11 -4 7 -13 9 -21 4z"/>
<path d="M3430 5176 c0 -19 4 -37 8 -40 12 -7 38 12 29 21 -5 4 -13 1 -18 -7
-8 -11 -9 -7 -5 17 3 18 1 35 -4 38 -6 4 -10 -9 -10 -29z"/>
<path d="M6915 5190 c-8 -24 -8 -24 -17 -5 -6 15 -7 12 -2 -10 3 -16 6 -38 7
-47 1 -10 5 -18 9 -18 9 0 21 63 16 87 -4 15 -5 14 -13 -7z"/>
<path d="M6830 5190 c0 -5 5 -10 10 -10 6 0 10 5 10 10 0 6 -4 10 -10 10 -5 0
-10 -4 -10 -10z"/>
<path d="M6691 5088 c-13 -40 -44 -116 -69 -168 -25 -52 -45 -101 -45 -108 1
-7 -2 -11 -5 -8 -10 11 -40 -48 -30 -60 5 -7 8 -16 7 -20 -4 -22 2 -34 19 -34
14 0 15 -2 2 -10 -12 -8 -12 -10 3 -16 9 -3 23 -4 30 -1 7 3 23 -1 36 -7 20
-11 17 -12 -30 -10 -50 2 -53 3 -65 35 -12 35 -14 44 -14 57 0 4 -9 -4 -20
-18 -11 -15 -17 -34 -14 -46 6 -24 -11 -41 -22 -23 -4 8 -3 9 4 5 8 -4 12 0
12 11 0 13 -17 0 -55 -40 -30 -32 -53 -62 -50 -67 3 -5 0 -12 -6 -16 -8 -4 -9
-3 -5 4 15 25 -8 10 -67 -43 -33 -30 -89 -72 -123 -92 -35 -20 -60 -41 -57
-46 3 -6 1 -7 -4 -4 -13 8 -73 -11 -73 -23 0 -17 142 -185 155 -182 7 1 16 -2
20 -8 3 -6 0 -7 -9 -4 -9 3 -16 3 -16 0 0 -4 37 -52 83 -109 45 -56 107 -135
137 -174 30 -40 57 -73 60 -73 3 0 21 22 40 47 19 26 40 52 46 58 7 6 42 56
78 111 155 231 257 514 285 793 14 132 14 301 1 301 -5 0 -10 -12 -10 -27 0
-16 -5 -35 -10 -43 -8 -11 -9 -7 -4 14 5 22 4 27 -6 21 -7 -4 -39 -8 -71 -7
-33 0 -59 -3 -59 -8 0 -4 -11 -11 -25 -14 -14 -4 -25 -11 -25 -16 0 -5 19 0
43 10 42 20 112 27 121 12 2 -4 -13 -8 -35 -8 -22 -1 -48 -9 -58 -18 -9 -9
-23 -16 -29 -16 -6 0 -14 -5 -18 -12 -5 -8 2 -9 26 -5 26 6 31 4 26 -9 -3 -8
-2 -12 4 -9 6 3 10 1 10 -4 0 -6 -7 -11 -15 -11 -18 0 -19 -7 -2 -25 11 -10
17 -8 36 11 29 30 51 32 25 2 -27 -33 -37 -38 -56 -32 -10 3 -18 1 -18 -5 0
-6 11 -13 25 -17 14 -3 25 -11 25 -16 0 -6 -9 -8 -20 -5 -16 4 -20 0 -20 -22
0 -15 6 -33 13 -40 10 -10 8 -11 -8 -5 -11 4 -24 12 -28 18 -6 8 -10 7 -14 -1
-2 -7 -11 -13 -19 -13 -10 0 -12 8 -7 32 5 24 3 29 -7 23 -10 -6 -11 -2 -6 20
12 46 -18 14 -33 -35 -12 -40 -25 -51 -34 -27 -4 7 -6 6 -6 -4 -1 -9 5 -19 13
-22 17 -7 32 9 38 38 5 18 6 18 15 -5 8 -19 7 -27 -4 -33 -10 -6 -11 -12 -3
-22 13 -16 3 -45 -16 -45 -8 0 -13 9 -11 23 1 15 -2 21 -13 18 -8 -2 -31 -5
-50 -7 l-35 -3 35 8 c19 5 29 9 22 10 -9 1 -11 8 -6 24 3 12 3 19 -1 15 -9 -9
-35 9 -35 24 0 6 8 4 17 -3 11 -9 14 -10 10 -2 -5 7 0 27 10 45 9 18 16 40 15
49 -2 9 4 21 12 28 8 7 12 19 9 27 -3 8 0 14 6 14 6 0 11 9 11 19 0 28 11 52
20 46 5 -3 11 -1 15 5 3 5 1 10 -4 10 -6 0 -11 7 -11 16 0 8 4 13 8 10 4 -3 9
11 9 30 1 19 0 34 -1 34 -1 0 -13 -33 -25 -72z m169 -78 c0 -5 -15 -10 -32 -9
-28 0 -30 2 -13 9 28 12 45 12 45 0z m27 -24 c-4 -9 -17 -15 -29 -15 l-23 2
23 4 c18 4 23 9 19 25 -4 15 -3 18 5 10 6 -6 8 -18 5 -26z m20 -18 c-3 -8 -6
-5 -6 6 -1 11 2 17 5 13 3 -3 4 -12 1 -19z m-22 -58 c3 -5 1 -10 -4 -10 -6 0
-11 5 -11 10 0 6 2 10 4 10 3 0 8 -4 11 -10z m-25 -20 c0 -5 -4 -10 -10 -10
-5 0 -10 5 -10 10 0 6 5 10 10 10 6 0 10 -4 10 -10z m0 -61 c0 -5 -4 -9 -10
-9 -5 0 -10 7 -10 16 0 8 5 12 10 9 6 -3 10 -10 10 -16z m-260 -49 c0 -5 -4
-10 -9 -10 -6 0 -13 5 -16 10 -3 6 1 10 9 10 9 0 16 -4 16 -10z m150 1 c0 -6
-4 -13 -10 -16 -5 -3 -10 1 -10 9 0 9 5 16 10 16 6 0 10 -4 10 -9z m40 -31 c0
-5 -4 -10 -10 -10 -5 0 -10 5 -10 10 0 6 5 10 10 10 6 0 10 -4 10 -10z m-130
-19 c0 -5 -11 -11 -25 -13 -28 -6 -35 8 -7 15 28 8 32 7 32 -2z m90 -1 c0 -5
-7 -10 -16 -10 -8 0 -12 5 -9 10 3 6 10 10 16 10 5 0 9 -4 9 -10z m-170 -4 c0
-3 -4 -8 -10 -11 -5 -3 -10 -1 -10 4 0 6 5 11 10 11 6 0 10 -2 10 -4z m-43
-78 c0 -11 -8 -18 -20 -18 -16 0 -17 3 -7 15 6 8 9 24 5 37 -7 22 -6 22 8 3 8
-11 14 -28 14 -37z m88 42 c3 -5 -1 -10 -10 -10 -9 0 -13 5 -10 10 3 6 8 10
10 10 2 0 7 -4 10 -10z m75 -20 c0 -5 -9 -10 -21 -10 -11 0 -17 5 -14 10 3 6
13 10 21 10 8 0 14 -4 14 -10z m-230 -49 c0 -4 17 -15 38 -24 34 -14 35 -15
10 -16 -14 -1 -28 5 -31 12 -2 6 -8 8 -13 4 -5 -5 1 -17 14 -28 14 -11 22 -26
19 -36 -4 -16 -6 -15 -12 4 -4 13 -11 20 -16 17 -5 -3 -9 1 -9 8 0 25 -22 39
-38 25 -12 -10 -14 -9 -10 3 3 9 16 14 29 13 13 -1 18 1 12 3 -15 7 -17 24 -3
24 6 0 10 -4 10 -9z m210 -1 c0 -5 -6 -10 -14 -10 -8 0 -18 5 -21 10 -3 6 3
10 14 10 12 0 21 -4 21 -10z m-20 -42 c17 -12 30 -26 30 -32 0 -6 -5 -5 -12 2
-18 18 -26 15 -31 -10 -3 -15 -5 -10 -6 14 0 20 -7 39 -13 41 -7 3 -9 6 -5 6
4 1 21 -9 37 -21z m-235 -16 c-3 -3 -11 0 -18 7 -9 10 -8 11 6 5 10 -3 15 -9
12 -12z m175 0 c0 -10 -36 -9 -46 1 -4 4 5 7 19 7 15 0 27 -4 27 -8z m-50 -23
c0 -5 -4 -9 -10 -9 -5 0 -10 7 -10 16 0 8 5 12 10 9 6 -3 10 -10 10 -16z
m-115 1 c3 -5 1 -10 -4 -10 -6 0 -11 5 -11 10 0 6 2 10 4 10 3 0 8 -4 11 -10z
m42 -42 c-3 -8 -6 -5 -6 6 -1 11 2 17 5 13 3 -3 4 -12 1 -19z m-107 3 c0 -5
-7 -12 -16 -15 -14 -5 -15 -4 -4 9 14 17 20 19 20 6z m21 -14 c-10 -9 -11 -8
-5 6 3 10 9 15 12 12 3 -3 0 -11 -7 -18z m169 3 c0 -5 -2 -10 -4 -10 -3 0 -8
5 -11 10 -3 6 -1 10 4 10 6 0 11 -4 11 -10z m-231 -49 c-1 -20 -2 -22 -6 -6
-3 11 -10 26 -15 33 -8 9 -7 11 6 6 10 -4 16 -16 15 -33z m78 5 c-7 -13 -15
-22 -19 -20 -8 5 13 44 23 44 4 0 2 -11 -4 -24z m53 14 c0 -5 -4 -10 -10 -10
-5 0 -10 5 -10 10 0 6 5 10 10 10 6 0 10 -4 10 -10z m-90 -10 c0 -5 -4 -10
-10 -10 -5 0 -10 5 -10 10 0 6 5 10 10 10 6 0 10 -4 10 -10z m145 -10 c3 -5 1
-10 -4 -10 -6 0 -11 5 -11 10 0 6 2 10 4 10 3 0 8 -4 11 -10z m-410 -119 c3
-5 2 -12 -3 -15 -5 -3 -9 1 -9 9 0 17 3 19 12 6z m80 -111 c3 -5 1 -10 -4 -10
-6 0 -11 5 -11 10 0 6 2 10 4 10 3 0 8 -4 11 -10z"/>
<path d="M6790 5130 c-13 -8 -12 -10 3 -10 9 0 17 5 17 10 0 12 -1 12 -20 0z"/>
<path d="M6830 5124 c0 -8 5 -12 10 -9 6 3 10 10 10 16 0 5 -4 9 -10 9 -5 0
-10 -7 -10 -16z"/>
<path d="M6877 5133 c-4 -3 -7 -11 -7 -17 0 -6 5 -5 12 2 6 6 9 14 7 17 -3 3
-9 2 -12 -2z"/>
<path d="M6835 5090 c-15 -7 -9 -9 24 -9 24 -1 41 2 37 6 -10 11 -39 12 -61 3z"/>
<path d="M3500 5081 c0 -6 5 -13 10 -16 6 -3 10 1 10 9 0 9 -4 16 -10 16 -5 0
-10 -4 -10 -9z"/>
<path d="M6685 4979 c-4 -6 -5 -12 -2 -15 2 -3 7 2 10 11 7 17 1 20 -8 4z"/>
<path d="M6686 4935 c-3 -9 0 -15 9 -15 8 0 15 7 15 15 0 8 -4 15 -9 15 -5 0
-11 -7 -15 -15z"/>
<path d="M6650 4870 c0 -5 5 -10 10 -10 6 0 10 5 10 10 0 6 -4 10 -10 10 -5 0
-10 -4 -10 -10z"/>
<path d="M6750 4870 c0 -5 5 -10 10 -10 6 0 10 5 10 10 0 6 -4 10 -10 10 -5 0
-10 -4 -10 -10z"/>
<path d="M6631 4844 c0 -11 3 -14 6 -6 3 7 2 16 -1 19 -3 4 -6 -2 -5 -13z"/>
<path d="M4750 4141 c0 -5 7 -12 16 -15 14 -5 15 -4 4 9 -14 17 -20 19 -20 6z"/>
<path d="M4803 4093 c5 -7 6 -16 3 -21 -3 -6 1 -15 9 -22 8 -7 12 -17 9 -22
-4 -6 -10 -5 -15 3 -5 8 -9 10 -9 4 0 -5 5 -17 10 -25 8 -12 10 -12 10 -1 0
11 5 10 20 -4 16 -14 17 -20 8 -27 -9 -6 -7 -10 10 -14 26 -7 29 -24 5 -25
-15 0 -15 -2 2 -9 13 -6 3 -7 -32 -5 l-53 4 0 -41 c0 -32 -3 -39 -15 -34 -13
5 -15 -43 -15 -394 0 -374 -1 -400 -17 -401 -10 -1 32 -8 92 -16 224 -29 470
-17 687 35 l78 18 -19 24 c-225 289 -415 524 -423 522 -5 -1 -7 2 -4 7 5 8
-27 54 -69 98 -11 11 -30 19 -42 18 -14 -1 -19 3 -16 12 4 10 9 11 19 2 22
-18 16 3 -9 33 -12 14 -40 50 -62 79 -22 28 -50 64 -63 78 -12 14 -29 35 -37
46 l-15 20 7 -20 c6 -18 5 -18 -10 -6 -11 9 -14 18 -8 25 6 7 0 21 -17 41 -15
17 -23 25 -19 18z m28 -40 c13 -16 12 -17 -3 -4 -17 13 -22 21 -14 21 2 0 10
-8 17 -17z m74 -144 c-4 -5 1 -19 11 -30 20 -22 10 -26 -12 -4 -8 8 -21 12
-28 9 -8 -3 -17 -1 -21 5 -3 6 4 15 17 20 31 13 40 13 33 0z m48 -32 c-3 -4
-6 -7 -7 -5 -1 2 -8 12 -16 22 -14 18 -14 18 7 6 12 -8 19 -18 16 -23z m-156
1 c-3 -8 -6 -5 -6 6 -1 11 2 17 5 13 3 -3 4 -12 1 -19z m192 -63 c0 -5 -4 -3
-9 5 -5 8 -9 22 -9 30 0 16 17 -16 18 -35z m-119 31 c0 -2 -9 -6 -20 -9 -11
-3 -18 -1 -14 4 5 9 34 13 34 5z m-90 -38 c0 -5 -4 -8 -10 -8 -5 0 -10 10 -10
23 0 18 2 19 10 7 5 -8 10 -18 10 -22z m17 0 c-3 -7 -5 -2 -5 12 0 14 2 19 5
13 2 -7 2 -19 0 -25z m174 -35 c-12 -20 -14 -14 -5 12 4 9 9 14 11 11 3 -2 0
-13 -6 -23z m20 -6 c-10 -9 -11 -8 -5 6 3 10 9 15 12 12 3 -3 0 -11 -7 -18z
m-214 -49 c-2 -13 -4 -5 -4 17 -1 22 1 32 4 23 2 -10 2 -28 0 -40z m304 5 c2
1 -2 -3 -9 -10 -8 -7 -11 -17 -6 -25 4 -8 3 -10 -2 -5 -14 13 -13 58 1 47 7
-6 14 -9 16 -7z m-201 -13 c0 -5 -5 -10 -11 -10 -5 0 -7 5 -4 10 3 6 8 10 11
10 2 0 4 -4 4 -10z"/>
<path d="M4752 4020 c0 -14 2 -19 5 -12 2 6 2 18 0 25 -3 6 -5 1 -5 -13z"/>
<path d="M4800 3979 c0 -5 5 -7 10 -4 6 3 10 8 10 11 0 2 -4 4 -10 4 -5 0 -10
-5 -10 -11z"/>
<path d="M4751 3964 c0 -11 3 -14 6 -6 3 7 2 16 -1 19 -3 4 -6 -2 -5 -13z"/>
<path d="M4800 3950 c0 -5 4 -10 9 -10 6 0 13 5 16 10 3 6 -1 10 -9 10 -9 0
-16 -4 -16 -10z"/>
<path d="M4750 3890 c0 -19 3 -21 12 -12 9 9 9 15 0 24 -9 9 -12 7 -12 -12z"/>
<path d="M1168 4716 c-34 -17 -37 -70 -4 -91 19 -13 29 -14 45 -5 30 16 43 44
32 73 -11 29 -41 39 -73 23z"/>
<path d="M1494 4404 c-7 -29 6 -47 31 -42 28 5 41 33 26 52 -21 25 -50 20 -57
-10z"/>
<path d="M8138 4275 c-107 -30 -191 -101 -241 -205 -29 -60 -32 -73 -32 -165
0 -86 3 -107 24 -150 47 -94 125 -158 230 -189 l46 -13 3 -58 3 -58 95 5 c83
5 103 10 169 42 121 60 229 190 251 302 5 28 3 32 -20 38 -24 6 -26 10 -26 64
0 72 -20 149 -55 210 -37 64 -160 182 -190 182 -3 0 -4 -4 -1 -9 4 -5 -3 -7
-15 -4 -11 3 -16 9 -11 12 21 12 -184 9 -230 -4z m170 -255 c113 -69 87 -233
-39 -247 -65 -7 -112 17 -139 71 -25 53 -25 69 1 124 34 69 111 92 177 52z
m158 -277 c21 -26 45 -54 52 -62 11 -12 7 -20 -24 -52 -21 -22 -41 -39 -44
-39 -3 0 -15 15 -27 34 -17 26 -19 36 -10 46 9 10 9 11 -1 5 -17 -9 -71 51
-72 80 0 17 -2 17 -10 5 -8 -13 -10 -13 -10 0 0 8 12 26 28 40 26 25 28 26 53
8 14 -9 43 -39 65 -65z"/>
<path d="M8366 3794 c-3 -8 -11 -12 -17 -8 -8 4 -8 1 -1 -12 5 -11 7 -26 5
-34 -4 -13 -3 -13 5 -1 6 8 8 21 4 29 -4 11 -1 13 8 7 9 -6 11 -4 5 5 -6 10
-4 12 8 7 11 -4 14 -2 10 9 -7 18 -19 18 -27 -2z"/>
<path d="M8420 3656 c0 -2 8 -10 18 -17 15 -13 16 -12 3 4 -13 16 -21 21 -21
13z"/>
<path d="M7230 3164 c0 -8 5 -12 10 -9 6 3 10 10 10 16 0 5 -4 9 -10 9 -5 0
-10 -7 -10 -16z"/>
<path d="M3490 2620 c0 -5 5 -10 10 -10 6 0 10 5 10 10 0 6 -4 10 -10 10 -5 0
-10 -4 -10 -10z"/>
<path d="M6110 1762 c0 -82 3 -183 6 -224 l7 -74 54 10 55 10 -6 80 c-3 45 -7
141 -8 213 l-3 133 -52 0 -53 0 0 -148z"/>
<path d="M6274 1705 c10 -231 3 -216 86 -177 25 12 34 23 33 37 -2 11 -6 90
-9 177 l-7 156 -30 6 c-16 3 -41 6 -56 6 l-26 0 9 -205z"/>
<path d="M5990 1886 l-45 -12 1 -105 c1 -57 2 -150 2 -206 l2 -103 56 0 56 0
-4 220 c-2 138 -7 220 -13 219 -5 -1 -30 -6 -55 -13z"/>
<path d="M5821 1822 l-53 -27 6 -74 c3 -41 6 -111 6 -156 l0 -82 61 -10 c59
-10 60 -9 55 11 -3 12 -6 99 -6 194 0 94 -3 172 -7 171 -5 0 -32 -12 -62 -27z"/>
<path d="M3176 1667 c3 -10 9 -15 12 -12 3 3 0 11 -7 18 -10 9 -11 8 -5 -6z"/>
<path d="M7941 2988 c5 -18 13 -59 19 -90 10 -49 15 -58 40 -67 38 -13 43 -3
25 49 -12 34 -81 140 -91 140 -1 0 2 -15 7 -32z"/>
</g>
</svg>
